<svg width="16" height="12" viewBox="0 0 16 12" fill="none" xmlns="http://www.w3.org/2000/svg">
<path d="M10.2057 0.361704C9.92338 0.651943 9.92096 1.12264 10.2002 1.41595L13.5718 4.90455L0.722255 4.90455C0.323364 4.90455 0 5.23799 0 5.64931C0 6.06063 0.323364 6.39407 0.722255 6.39407L13.5718 6.39407L10.1941 9.88266C9.91768 10.1772 9.92009 10.6454 10.1995 10.9369C10.4819 11.2247 10.937 11.2222 11.2164 10.9313L15.7939 6.17683C15.8565 6.10787 15.9073 6.02848 15.9442 5.94202C15.9819 5.85146 16.0009 5.75382 16 5.6553C16.0001 5.4605 15.9265 5.27335 15.7947 5.13376L11.2172 0.379275C11.0864 0.236732 10.9053 0.154533 10.715 0.151227C10.5247 0.147921 10.3411 0.223786 10.2057 0.361704Z" fill="black"/>
</svg>
