<svg width="545" height="294" viewBox="0 0 545 294" fill="none" xmlns="http://www.w3.org/2000/svg">
  <path d="M107.678 10.2942L107.295 162.16L229.947 233.388V-36.69V-59.7839L229.18 -60.1674L107.678 10.2942Z" fill="white" fill-opacity="0.05"/>
  <path d="M-38.041 57.2784V78.0128C-38.041 78.0128 84.2276 149.241 84.6111 149.241V-13.9795L-38.041 57.2489V57.2784Z" fill="white" fill-opacity="0.05"/>
  <path d="M422.214 102.286V153.164C453.629 171.155 520.619 210.324 520.619 210.324V406.814L544.837 420.912V173.515L422.185 102.286H422.214Z" fill="white" fill-opacity="0.05"/>
  <path d="M398.025 281.552L275.373 210.323L398.025 139.095V76.066L275.373 4.83768L375.312 -53.4722V-95L252.66 -23.7716H252.306L252.66 246.306L375.312 317.948V515.617L398.025 528.919V281.522V281.552Z" fill="white" fill-opacity="0.05"/>
  <path d="M-15.3281 233.417V480.814L107.294 552.043V304.646L-15.3281 233.417Z" fill="white" fill-opacity="0.05"/>
</svg>
