<svg width="222" height="101" viewBox="0 0 222 101" fill="none" xmlns="http://www.w3.org/2000/svg">
<path fill-rule="evenodd" clip-rule="evenodd" d="M12.75 42.08H0V73.45H13.35C17.82 73.45 20.03 72.93 22.05 71.38C24.12 69.83 25.3 67.29 25.3 64.33C25.3 60.7 23.75 58.4 20.13 56.66C23.14 55.2 24.55 53.09 24.55 50.08C24.55 47.44 23.19 45 20.98 43.68C18.96 42.5 16.7 42.08 12.75 42.08ZM98.21 73.45H90.03L84.39 63.76L82.23 65.88V73.45H75.55V42.08H82.23V58.54L89.19 50.73H97.47L88.82 59.38L98.23 73.44L98.21 73.45ZM128.26 42.08H121.58V73.44H127.97V70.86C129.76 73.21 131.36 74.06 134.18 74.06C140.01 74.06 144.2 68.75 144.2 61.79C144.2 54.83 140.3 50.12 134.51 50.12C132.21 50.12 130.42 50.73 128.26 52.33V42.08ZM172.83 42.08H166.15V47.58H172.83V42.08ZM187.6 55.72H183.51V64.56C183.51 68.13 183.65 68.42 185.2 68.42H187.6V73.45H183.51C180.59 73.45 179.14 73.03 178.15 71.95C177.12 70.82 176.83 69.6 176.83 66.07V55.72H173.63V51.02H176.83V43.82H183.51V51.02H187.6V55.72ZM203.85 50.99L200.89 61.24C200.37 63.26 200 64.81 199.71 66.32L199.43 65.43L199.373 65.2246L199.292 64.9317L199.209 64.6299C198.892 63.4771 198.803 63.1511 198.26 61.39L194.92 51H187.77L195.25 70.09C196.05 72.07 196.1 72.21 196.1 73.01C196.1 74.98 195.02 75.88 192.67 75.88H190.7V80.91H194.6C197.09 80.91 198.6 80.58 199.68 79.78C200.86 78.93 201.61 77.62 202.88 73.9L210.78 51H203.86L203.85 50.99ZM166.15 50.74H172.83V73.45H166.15V50.74ZM156.23 73.45H162.91V42.09H156.23V73.45ZM153 50.74H146.32V73.45H153V50.74ZM146.32 42.08H153V47.58H146.32V42.08ZM127.97 62.07C127.97 66.02 129.9 68.65 132.81 68.65C135.72 68.65 137.61 66.11 137.61 62.16C137.61 58.21 135.78 55.53 132.81 55.53C129.84 55.53 127.97 58.16 127.97 62.07ZM111.8 66.11C110.72 68.04 109.12 68.98 106.91 68.98C104.7 68.98 103.52 68.09 103.52 66.58C103.52 65.22 104.56 64.42 106.95 63.85L109.35 63.33C110.48 63.09 111.09 62.91 111.8 62.62V66.1V66.11ZM108.13 55.2C105.69 55.2 104.37 56.05 104.09 57.88L104.08 57.87H98.11C98.54 52.65 101.78 50.11 108.18 50.11C111.61 50.11 114.24 50.91 116.03 52.46C117.68 53.92 118.29 55.75 118.29 59.09V69.53C118.29 71.98 118.39 72.31 119.14 73.44H112.32C112.134 72.91 112.072 72.6697 111.981 72.3206L111.981 72.3206C111.935 72.1428 111.881 71.9368 111.8 71.65C109.59 73.49 107.99 74.05 105.31 74.05C100.28 74.05 96.94 71.22 96.94 66.95C96.94 62.68 99.62 60.46 105.97 59.43L109.59 58.82C111.09 58.59 111.61 58.21 111.61 57.27C111.61 56 110.3 55.2 108.13 55.2ZM63.13 50.13C69.05 50.13 73.1 53.51 73.52 58.92L73.53 58.94H67.18C66.8 56.77 65.3 55.55 63.04 55.55C59.99 55.55 58.34 57.85 58.34 61.99C58.34 66.36 59.99 68.67 63.09 68.67C65.49 68.67 66.8 67.44 67.32 64.76L73.81 65.09C72.87 70.83 68.92 74.07 62.9 74.07C55.98 74.07 51.61 69.69 51.61 62.17C51.61 54.65 55.93 50.13 63.13 50.13ZM49.49 73.45H42.81V50.74H49.49V73.45ZM42.81 47.58H49.49V42.08H42.81V47.58ZM27.62 50.74V73.44H34.3V67.05C34.3 62.68 34.54 60.56 35.19 59.05C35.94 57.36 37.82 56.32 40.13 56.32C40.69 56.32 41.02 56.32 41.82 56.42V50.12C36.98 50.08 35.28 51.11 33.97 54.78L34.16 50.74H27.62ZM18.12 63.62C18.12 66.11 16.52 67.43 13.56 67.43H13.54H6.91V59.81H13.56C16.52 59.81 18.12 61.13 18.12 63.62ZM13.65 54.26C16.19 54.26 17.51 53.22 17.51 51.15C17.51 49.08 16.19 48.09 13.65 48.09H6.91V54.25H13.64L13.65 54.26Z" fill="white"/>
<path d="M195.953 7.74645V6.36566V7.74645C195.931 7.74645 195.931 7.74645 195.953 7.74645Z" fill="#FF7D17"/>
<path d="M197.262 8.51877H197.285L204.591 4.25939L197.285 0L192.504 2.78498L197.262 5.56997V8.51877Z" fill="#FF7D17"/>
<path d="M188.648 10.5548L195.887 6.34227L188.58 2.05948L183.123 5.24232L188.648 8.33154V10.5548Z" fill="#FF7D17"/>
<path d="M188.648 10.5549L188.625 19.6353L195.931 23.8947V7.74648V6.36569L195.886 6.34229L188.648 10.5549Z" fill="white"/>
<path d="M179.965 13.3632V14.6036C179.965 14.6036 187.249 18.863 187.271 18.863V9.10385L179.965 13.3632Z" fill="white"/>
<path d="M178.613 13.7845C178.613 13.7845 174.441 11.3506 172.659 10.2974C172.253 10.0634 171.306 9.50171 171.306 9.50171L164 13.7611L171.306 18.0205L178.613 13.7845Z" fill="#FF7D17"/>
<path d="M164 13.7845V28.5753L171.306 32.8347V18.0439L164 13.7845Z" fill="white"/>
<path d="M179.967 23.099L172.66 18.8396V23.8713V32.0624V33.6304L179.967 37.8898V28.1541V23.099Z" fill="white"/>
<path d="M187.273 9.10385L179.786 4.93808L172.66 9.08045L179.967 13.3632L187.273 9.10385Z" fill="#FF7D17"/>
<path d="M205.943 14.4866L213.249 10.2272L205.943 5.96783L204.59 6.74014L198.637 10.2272L205.943 14.4866Z" fill="#FF7D17"/>
<path d="M214.693 20.314L221.999 16.0546L214.693 11.7952L213.25 12.6377L207.387 16.0546L214.693 20.314Z" fill="#FF7D17"/>
<path d="M207.387 16.0546V19.097C209.258 20.1736 213.25 22.5139 213.25 22.5139V25.018V34.2623L214.693 35.1048V20.314L207.387 16.0546Z" fill="white"/>
<path d="M198.637 22.5139L205.943 26.7733L213.249 22.5139C213.249 22.5139 209.258 20.1736 207.386 19.097C206.935 18.8162 205.943 18.2545 205.943 18.2545L198.637 22.5139Z" fill="#FF7D17"/>
<path d="M205.944 26.7733L198.637 22.5139L205.944 18.2545V14.4866L198.637 10.2272L204.591 6.74014V4.2594L197.284 8.51878H197.262L197.284 24.667L204.591 28.9498V40.7684L205.944 41.5641V29.2774V26.7733Z" fill="white"/>
<path d="M179.967 14.5802L172.66 18.8396L179.967 23.099L187.273 18.8396C187.25 18.8396 179.967 14.5802 179.967 14.5802Z" fill="#FF7D17"/>
<path d="M195.954 25.4627L189.979 28.9498L197.285 33.2092L204.591 28.9498L197.285 24.667L195.954 25.4627Z" fill="#FF7D17"/>
<path d="M189.979 28.9498V42.1492V43.7406L197.285 48V33.2092L189.979 28.9498Z" fill="white"/>
<path d="M188.625 19.6353L181.318 23.8947L188.625 28.1541L195.931 23.8947L188.625 19.6353Z" fill="#FF7D17"/>
<path d="M181.318 23.8947V37.1175V38.6855L188.625 42.9449V28.1541L181.318 23.8947Z" fill="white"/>
<path d="M0.365234 97V86.638H3.89773C6.53533 86.638 7.86983 87.4073 7.86983 89.2913C7.86983 90.4374 7.21043 91.0968 5.97013 91.3951C7.47733 91.7248 8.35653 92.5412 8.35653 93.9699C8.35653 95.901 6.84933 97 4.25883 97H0.365234ZM2.23353 91.0026H4.29023C5.26363 91.0026 5.95443 90.3903 5.95443 89.5111C5.95443 88.6319 5.43633 88.1766 3.78783 88.1766H2.23353V91.0026ZM2.23353 95.4771H4.25883C5.67183 95.4771 6.36263 95.0218 6.36263 94.0013C6.36263 93.0907 5.89163 92.3528 3.89773 92.3528H2.23353V95.4771Z" fill="white"/>
<path d="M10.1887 97V89.15H11.9628V90.1862L11.7901 92.5883H11.9157C12.0413 91.034 12.7007 89.0244 14.569 89.0244H14.7731V91.3009H14.1608C12.6379 91.3009 12.0727 92.2743 12.057 93.9699V97H10.1887Z" fill="white"/>
<path d="M16.2908 87.9254C16.2123 87.9254 16.1809 87.8783 16.1809 87.7998V86.167C16.1809 86.0728 16.228 86.0257 16.3222 86.0257H18.1434C18.2219 86.0257 18.269 86.0728 18.269 86.167V87.7998C18.269 87.8783 18.2219 87.9254 18.1434 87.9254H16.2908ZM16.2908 97V89.15H18.1591V97H16.2908Z" fill="white"/>
<path d="M23.7256 97.1884C21.3392 97.1884 19.9576 95.5242 19.9576 93.0593C19.9576 90.7043 21.3549 88.9459 23.757 88.9459C25.3898 88.9459 26.4103 89.5268 26.9284 91.0183L25.2642 91.7405C25.1072 91.0654 24.7461 90.3903 23.7884 90.3903C22.658 90.3903 21.9201 91.2381 21.9201 93.0279C21.9201 94.7235 22.4853 95.7283 23.8041 95.7283C24.6362 95.7283 25.2171 95.273 25.4055 94.5665L26.897 95.273C26.4888 96.3092 25.484 97.1884 23.7256 97.1884Z" fill="white"/>
<path d="M28.5104 97V85.4291H30.3316V91.2067L30.2374 93.1692L33.2361 89.15H35.5283L32.9535 92.29L35.701 97H33.5972L31.6033 93.4361L30.2845 94.959L30.3159 95.4457V97H28.5104Z" fill="white"/>
<path d="M44.1257 97.1884C41.6922 97.1884 40.2792 95.9795 40.2792 94.2525C40.2792 92.604 41.5195 91.8033 42.9168 91.3951C42.2888 90.5944 41.9434 89.8879 41.9434 89.0872C41.9434 87.4387 43.2151 86.4182 45.0206 86.4182C46.7476 86.4182 47.8937 87.3759 47.8937 88.9145C47.8937 90.2019 46.8889 91.0811 45.2718 91.5521C45.4131 91.7248 45.5858 91.8975 45.7742 92.0859L47.6268 93.9542C48.1606 93.1849 48.3961 92.2586 48.5217 91.1439H50.3743C50.0603 92.8395 49.4951 93.9856 48.5845 94.9433C49.4794 95.8696 50.5941 97 50.5941 97H48.1449L47.2657 96.0423C46.4964 96.6703 45.523 97.1884 44.1257 97.1884ZM44.5182 90.7043C45.5387 90.4374 46.2138 89.7623 46.2138 88.9773C46.2138 88.2551 45.7585 87.7527 44.9578 87.7527C44.2042 87.7527 43.7175 88.2708 43.7175 89.0244C43.7175 89.6053 43.9059 89.9978 44.5182 90.7043ZM44.2356 95.7283C45.0834 95.7283 45.7585 95.4614 46.308 95.0532L43.9059 92.5569C43.796 92.447 43.6861 92.3371 43.5919 92.2115C42.7284 92.5098 42.1475 93.0436 42.1475 93.9699C42.1475 95.1003 43.0267 95.7283 44.2356 95.7283Z" fill="white"/>
<path d="M55.5452 97V86.638H59.0777C61.7153 86.638 63.0498 87.4073 63.0498 89.2913C63.0498 90.4374 62.3904 91.0968 61.1501 91.3951C62.6573 91.7248 63.5365 92.5412 63.5365 93.9699C63.5365 95.901 62.0293 97 59.4388 97H55.5452ZM57.4135 91.0026H59.4702C60.4436 91.0026 61.1344 90.3903 61.1344 89.5111C61.1344 88.6319 60.6163 88.1766 58.9678 88.1766H57.4135V91.0026ZM57.4135 95.4771H59.4388C60.8518 95.4771 61.5426 95.0218 61.5426 94.0013C61.5426 93.0907 61.0716 92.3528 59.0777 92.3528H57.4135V95.4771Z" fill="white"/>
<path d="M67.6922 97.1256C66.028 97.1256 65.2744 96.215 65.2744 94.2839V89.15H67.1898V93.9385C67.1898 95.1474 67.5195 95.5556 68.3045 95.5556C69.1837 95.5556 69.953 94.6293 69.9687 93.4047V89.15H71.8841V97H70.11V96.0423L70.1414 94.9433H70.0472C69.953 95.6969 69.168 97.1256 67.6922 97.1256Z" fill="white"/>
<path d="M74.2459 87.9254C74.1674 87.9254 74.136 87.8783 74.136 87.7998V86.167C74.136 86.0728 74.1831 86.0257 74.2773 86.0257H76.0985C76.177 86.0257 76.2241 86.0728 76.2241 86.167V87.7998C76.2241 87.8783 76.177 87.9254 76.0985 87.9254H74.2459ZM74.2459 97V89.15H76.1142V97H74.2459Z" fill="white"/>
<path d="M78.4622 97V85.4291H80.3305V97H78.4622Z" fill="white"/>
<path d="M85.2219 97.1099C83.2908 97.1099 82.1604 95.5085 82.1604 93.0122C82.1604 90.2333 83.5106 88.9302 85.3004 88.9302C86.682 88.9302 87.467 89.7623 87.8281 90.7828H87.9066L87.781 89.1343V85.4291H89.6022V97H87.8438L87.8595 94.8962V94.8805C87.5612 96.1208 86.6035 97.1099 85.2219 97.1099ZM85.8499 95.6812C87.1216 95.6812 87.8124 94.2211 87.8124 93.1535V92.7139C87.8124 91.4422 87.31 90.3432 85.8813 90.3432C84.7823 90.3432 84.1229 91.3637 84.1229 92.9023C84.1229 94.5665 84.6881 95.6812 85.8499 95.6812Z" fill="white"/>
<path d="M91.9544 87.9254C91.8759 87.9254 91.8445 87.8783 91.8445 87.7998V86.167C91.8445 86.0728 91.8916 86.0257 91.9858 86.0257H93.807C93.8855 86.0257 93.9326 86.0728 93.9326 86.167V87.7998C93.9326 87.8783 93.8855 87.9254 93.807 87.9254H91.9544ZM91.9544 97V89.15H93.8227V97H91.9544Z" fill="white"/>
<path d="M96.1707 97V89.15H97.9919V90.2176C97.9919 90.4374 97.9448 91.1753 97.9448 91.1753H98.039C98.4786 89.7937 99.452 88.9616 100.739 88.9616C102.215 88.9616 103.126 89.8408 103.126 91.7562V97H101.21V92.2429C101.21 90.9555 100.677 90.5944 99.9073 90.5944C98.9496 90.5944 98.0704 91.4579 98.0547 92.9651V97H96.1707Z" fill="white"/>
<path d="M108.164 100.862C105.652 100.862 104.616 100.077 104.616 98.9154C104.616 98.1304 105.26 97.5024 106.5 97.2512C105.746 97.1099 105.071 96.6232 105.071 95.8539C105.071 95.1317 105.558 94.6921 106.594 94.4409C105.574 93.9699 104.993 93.0279 104.993 91.9132C104.993 90.2019 106.233 88.9616 108.305 88.9616C109.609 88.9616 110.598 89.4326 111.147 90.1862C111.288 89.3698 111.791 89.0715 112.482 89.0715C112.639 89.0715 112.796 89.1029 112.843 89.1343V90.8927C112.764 90.8456 112.639 90.7828 112.403 90.7828C112.121 90.7828 111.775 90.7985 111.54 91.0026C111.602 91.2695 111.65 91.5364 111.65 91.819C111.65 93.5931 110.488 94.7863 108.274 94.7863C107.944 94.7863 107.63 94.7549 107.348 94.6921C106.861 94.7706 106.578 94.9747 106.578 95.2259C106.578 95.6184 106.892 95.7754 107.63 95.8853L109.687 96.0737C111.618 96.2778 112.403 96.9058 112.403 98.1932C112.403 99.7475 110.943 100.862 108.29 100.862H108.164ZM108.368 93.4989C109.483 93.4989 109.891 92.8081 109.891 91.8504C109.891 90.8927 109.436 90.2019 108.321 90.2019C107.285 90.2019 106.814 90.9398 106.814 91.8661C106.814 92.8395 107.301 93.4989 108.368 93.4989ZM108.415 99.512H108.588C110.268 99.512 110.739 98.9782 110.739 98.3659C110.739 97.8478 110.158 97.7222 109.028 97.6123C108.588 97.5652 107.725 97.5181 107.128 97.4867C106.547 97.6437 106.264 97.9734 106.28 98.4287C106.28 99.0253 106.955 99.4963 108.415 99.512Z" fill="white"/>
<path d="M117.947 97V86.638H121.024L123.222 93.232L123.583 95.1474H123.677L124.007 93.232L126.205 86.638H129.235V97H127.367V92.3528L127.524 87.9568H127.382L126.613 90.6729L124.352 97H122.861L120.584 90.6886L119.736 87.9568H119.595L119.815 92.3528V97H117.947Z" fill="white"/>
<path d="M133.546 97.157C132.039 97.157 131.191 96.2778 131.191 94.9433C131.191 93.4675 132.305 92.8552 133.891 92.5412C135.398 92.2272 135.964 92.0545 136.011 91.8504V91.7091C136.011 90.877 135.555 90.4217 134.566 90.4217C133.609 90.4217 132.981 90.9712 132.714 91.5835L131.269 90.8142C131.819 89.6524 133.153 88.9773 134.77 88.9773C136.827 88.9773 137.863 89.9664 137.863 91.8661V94.4252C137.863 96.0737 138.052 96.7488 138.319 97H136.403C136.199 96.8116 136.073 96.215 136.026 95.3672C135.697 96.4505 134.723 97.157 133.546 97.157ZM134.127 95.7911C135.037 95.7911 135.807 95.1945 136.011 94.2996V92.6511C135.838 92.9023 135.524 93.0907 134.896 93.2634C133.656 93.5931 133.09 94.0013 133.09 94.7549C133.09 95.43 133.561 95.7911 134.127 95.7911Z" fill="white"/>
<path d="M142.64 97.1413C141.132 97.1413 140.536 96.5604 140.536 94.802V90.6886H139.327V89.15H140.63V87.3602L142.31 86.5909V88.6162L142.231 89.15H144.1V90.6886H142.231L142.31 91.2067V94.5508C142.31 95.4457 142.498 95.5556 143.299 95.5556C143.676 95.5556 144.006 95.4928 144.367 95.3986V96.7959C143.88 96.9843 143.236 97.1413 142.64 97.1413Z" fill="white"/>
<path d="M152.58 92.9023C152.58 93.075 152.564 93.389 152.549 93.4832H147.289C147.399 95.1003 148.184 95.744 149.299 95.744C150.115 95.744 150.79 95.3201 151.088 94.7392L152.329 95.6027C151.732 96.4976 150.727 97.1884 149.173 97.1884C146.74 97.1884 145.389 95.6498 145.389 93.075C145.389 90.5316 146.771 88.9459 149.126 88.9459C151.622 88.9459 152.58 90.6258 152.58 92.9023ZM149.063 90.3275C148.105 90.3275 147.415 90.8456 147.32 92.29H150.649V92.2586C150.649 91.1125 150.241 90.3275 149.063 90.3275Z" fill="white"/>
<path d="M154.325 97V89.15H156.099V90.1862L155.926 92.5883H156.052C156.178 91.034 156.837 89.0244 158.705 89.0244H158.909V91.3009H158.297C156.774 91.3009 156.209 92.2743 156.193 93.9699V97H154.325Z" fill="white"/>
<path d="M160.427 87.9254C160.349 87.9254 160.317 87.8783 160.317 87.7998V86.167C160.317 86.0728 160.364 86.0257 160.459 86.0257H162.28C162.358 86.0257 162.405 86.0728 162.405 86.167V87.7998C162.405 87.8783 162.358 87.9254 162.28 87.9254H160.427ZM160.427 97V89.15H162.296V97H160.427Z" fill="white"/>
<path d="M166.418 97.157C164.91 97.157 164.063 96.2778 164.063 94.9433C164.063 93.4675 165.177 92.8552 166.763 92.5412C168.27 92.2272 168.835 92.0545 168.883 91.8504V91.7091C168.883 90.877 168.427 90.4217 167.438 90.4217C166.48 90.4217 165.852 90.9712 165.586 91.5835L164.141 90.8142C164.691 89.6524 166.025 88.9773 167.642 88.9773C169.699 88.9773 170.735 89.9664 170.735 91.8661V94.4252C170.735 96.0737 170.924 96.7488 171.19 97H169.275C169.071 96.8116 168.945 96.215 168.898 95.3672C168.569 96.4505 167.595 97.157 166.418 97.157ZM166.999 95.7911C167.909 95.7911 168.678 95.1945 168.883 94.2996V92.6511C168.71 92.9023 168.396 93.0907 167.768 93.2634C166.528 93.5931 165.962 94.0013 165.962 94.7549C165.962 95.43 166.433 95.7911 166.999 95.7911Z" fill="white"/>
<path d="M173.03 97V85.4291H174.898V97H173.03Z" fill="white"/>
<path d="M179.68 97.157C178.361 97.157 177.105 96.6075 176.493 95.5242L177.733 94.5822C178.22 95.3986 178.942 95.7597 179.727 95.7597C180.355 95.7597 180.889 95.4928 180.889 94.9433C180.889 94.2682 180.104 94.0013 178.926 93.5931C177.874 93.2163 176.838 92.6668 176.838 91.3009C176.838 89.9821 177.984 88.9773 179.821 88.9773C181.25 88.9773 182.113 89.5425 182.679 90.3589L181.438 91.3637C181.234 90.9398 180.7 90.3589 179.806 90.3589C179.13 90.3589 178.707 90.7043 178.707 91.1596C178.707 91.8347 179.554 92.1173 180.496 92.447C181.658 92.8552 182.757 93.3733 182.757 94.8491C182.757 96.3092 181.485 97.157 179.68 97.157Z" fill="white"/>
</svg>
