<svg width="17" height="17" viewBox="0 0 17 17" fill="currentColor" xmlns="http://www.w3.org/2000/svg">
<path fill-rule="evenodd" clip-rule="evenodd" d="M16.9325 4.99704C16.9622 3.67616 16.4713 2.3966 15.5659 1.43479C14.6032 0.529486 13.3247 0.0367278 12.0037 0.0617733C10.6042 -0.0205911 6.39661 -0.0205911 4.9938 0.0617733C3.67397 0.0356968 2.39632 0.527314 1.43409 1.43149C0.527714 2.39376 0.034947 3.67345 0.0617433 4.9954C-0.0205811 6.39559 -0.0205811 10.6052 0.0617433 12.0087C0.0338238 13.3301 0.526795 14.6095 1.43409 15.5702C2.39759 16.4727 3.675 16.9635 4.99462 16.9382C6.39414 17.0206 10.6017 17.0206 12.0046 16.9382C13.3255 16.9673 14.6049 16.4749 15.5659 15.5677C16.4702 14.6051 16.9626 13.327 16.9383 12.0063C17.0206 10.6061 17.0206 6.40053 16.9383 4.99704H16.9325ZM13.0353 4.9814C13.5963 4.9814 14.0511 4.52635 14.0511 3.96502C14.0518 3.69526 13.945 3.43636 13.7543 3.24561C13.5637 3.05486 13.3049 2.94799 13.0353 2.94864C12.4742 2.94864 12.0194 3.40369 12.0194 3.96502C12.0194 4.52635 12.4742 4.9814 13.0353 4.9814ZM8.50082 4.14293C6.09519 4.14293 4.14504 6.09402 4.14504 8.50082C4.14504 10.9076 6.09519 12.8587 8.50082 12.8587C10.9065 12.8587 12.8566 10.9076 12.8566 8.50082C12.8584 7.3445 12.4 6.23503 11.5828 5.41739C10.7655 4.59975 9.65659 4.14117 8.50082 4.14293ZM8.50082 11.3342C6.93677 11.3342 5.66886 10.0656 5.66886 8.50082C5.66886 6.93602 6.93677 5.66749 8.50082 5.66749C10.0649 5.66749 11.3328 6.93602 11.3328 8.50082C11.3319 10.0658 10.065 11.3347 8.50082 11.3375V11.3342ZM13.5078 15.1262C14.2457 14.8346 14.8299 14.2502 15.1214 13.5119H15.1238C15.5033 12.5546 15.4824 10.4611 15.4689 9.10549C15.4667 8.88188 15.4646 8.67835 15.4646 8.50329C15.4646 8.3268 15.4667 8.1214 15.4691 7.89569C15.4829 6.54035 15.5042 4.45261 15.1238 3.49307C14.8324 2.75384 14.2475 2.16868 13.5086 1.87708C12.5498 1.49875 10.4495 1.51899 9.09442 1.53204C8.87416 1.53416 8.67359 1.5361 8.50082 1.5361C8.32238 1.5361 8.11435 1.53391 7.88564 1.53152C6.5306 1.51731 4.44955 1.49548 3.49303 1.87461C2.75399 2.16639 2.16908 2.75188 1.87782 3.49142C1.49967 4.45071 1.5199 6.55206 1.53295 7.90777C1.53507 8.12813 1.537 8.32879 1.537 8.50165C1.537 8.67814 1.5349 8.88354 1.5326 9.10925C1.51876 10.4646 1.49744 12.5523 1.87782 13.5119C2.16946 14.2503 2.75397 14.8348 3.4922 15.1262C4.45103 15.5045 6.55135 15.4843 7.90641 15.4713C8.12666 15.4691 8.32723 15.4672 8.5 15.4672C8.67641 15.4672 8.88171 15.4693 9.10731 15.4716C10.462 15.4854 12.5487 15.5068 13.5078 15.1262Z" fill="currentColor"/>
</svg>
