<svg width="15" height="15" viewBox="0 0 15 15" fill="none" xmlns="http://www.w3.org/2000/svg">
<path fill-rule="evenodd" clip-rule="evenodd" d="M1.8113 3.61501C0.815119 3.61846 0.00448196 2.81314 1.85085e-05 1.81561C-0.00444494 0.818082 0.798953 0.00551855 1.79512 2.79669e-05C2.79129 -0.00546262 3.60357 0.798196 3.61007 1.79571C3.61141 2.79399 2.80819 3.60638 1.8113 3.61501ZM3.366 15H0.258948V4.98165H3.366V15ZM11.8937 15H14.9961L15 14.9976V9.4965C15 6.8033 14.4216 4.73017 11.2776 4.73017C10.0747 4.68558 8.94488 5.30744 8.33775 6.34828H8.29459V4.98165H5.31232V14.9992H8.41545V10.0387C8.41545 8.73263 8.66345 7.46972 10.2786 7.46972C11.8702 7.46972 11.8937 8.96053 11.8937 10.1228V15Z" fill="white"/>
</svg>
