<svg width="15" height="19" viewBox="0 0 15 19" fill="currentColor" xmlns="http://www.w3.org/2000/svg">
<path d="M7.96889 0C3.96111 0 0 2.60344 0 6.81745C0 9.49722 1.54667 11.0201 2.48444 11.0201C2.87333 11.0201 3.09556 9.96929 3.09556 9.67262C3.09556 9.31857 2.17 8.56498 2.17 7.09192C2.14492 5.67799 2.7184 4.31639 3.75558 3.3273C4.79276 2.33822 6.20212 1.80894 7.65222 1.86393C10.3122 1.86393 12.2811 3.33699 12.2811 6.04329C12.2811 8.06476 11.4478 11.856 8.75389 11.856C8.2859 11.8744 7.83015 11.7077 7.49029 11.3936C7.15044 11.0796 6.95536 10.6449 6.94944 10.1885C6.94944 8.74959 7.98056 7.35665 7.98056 5.87222C7.98056 3.35215 4.31389 3.80906 4.31389 6.85426C4.29055 7.51672 4.41864 8.17594 4.68889 8.78424C4.15 11.0455 3.04833 14.4145 3.04833 16.7423C3.04833 17.4618 3.15389 18.1699 3.22389 18.8894C3.35667 19.034 3.29056 19.0188 3.49333 18.9463C5.46111 16.3185 5.38889 15.8047 6.28111 12.3665C6.76167 13.257 8.00333 13.7367 8.98833 13.7367C13.1367 13.7378 15 9.79768 15 6.24901C15 2.46647 11.6483 0 7.96889 0Z" fill="currentColor"/>
</svg>
