<svg width="17" height="17" viewBox="0 0 17 17" fill="none" xmlns="http://www.w3.org/2000/svg">
<path d="M6.52447 12.9554C2.92727 12.9554 0 10.0498 0 6.47771C0 2.90558 2.92727 0 6.52447 0C10.1217 0 13.0489 2.90629 13.0489 6.47771C13.0489 10.0491 10.1224 12.9554 6.52447 12.9554ZM6.52447 2.21212C4.15511 2.21212 2.22809 4.12604 2.22809 6.47771C2.22809 8.82938 4.15583 10.7433 6.52447 10.7433C8.89311 10.7433 10.8216 8.82938 10.8216 6.47771C10.8216 4.12604 8.89382 2.21212 6.52447 2.21212ZM13.1331 11.0259C12.5502 11.8589 11.8118 12.5758 10.96 13.1375L14.8497 17L17 14.8658L13.1331 11.0259Z" fill="#FF7D17"/>
</svg>
